<?xml version="1.0" encoding="iso-8859-1"?>
<!-- Uploaded to: SVG Repo, www.svgrepo.com, Generator: SVG Repo Mixer Tools -->
<svg height="800px" width="800px" version="1.1" id="Layer_1" xmlns="http://www.w3.org/2000/svg" xmlns:xlink="http://www.w3.org/1999/xlink" 
	 viewBox="0 0 391.616 391.616" xml:space="preserve">
<g>
	<polygon style="fill:#005ECE;" points="150.229,75.325 129.017,54.112 0,183.129 128.991,312.74 150.255,291.578 42.375,183.18 	
		"/>
	<path style="fill:#2488FF;" d="M336.884,206.054c-21.272-21.273-47.6-37.241-76.134-46.18c-20.214-6.332-41.562-9.153-62.781-8.403
		l0.096,40.016c40.938-1.808,81.287,13.604,110.534,42.851c27.558,27.558,42.835,64.196,43.017,103.166l40-0.187
		C391.385,287.734,371.947,241.117,336.884,206.054z"/>
	<polygon style="fill:#005ECE;" points="69.404,183.248 198.354,312.188 198.044,183.248 	"/>
	<polygon style="fill:#2488FF;" points="197.734,54.917 69.404,183.248 198.044,183.248 	"/>
</g>
</svg>